Coordinates
version=1
nRows=30
nColumns=38
inDegrees=no

Units are S.I. units (second, meters, Newtons, ...)
If the header above contains a line with 'inDegrees', this indicates whether rotational values are in degrees (yes) or radians (no).

endheader
time	pelvis_tilt	pelvis_list	pelvis_rotation	pelvis_tx	pelvis_ty	pelvis_tz	hip_flexion_r	hip_adduction_r	hip_rotation_r	knee_angle_r	ankle_angle_r	subtalar_angle_r	mtp_angle_r	hip_flexion_l	hip_adduction_l	hip_rotation_l	knee_angle_l	ankle_angle_l	subtalar_angle_l	mtp_angle_l	lumbar_extension	lumbar_bending	lumbar_rotation	arm_flex_r	arm_add_r	arm_rot_r	elbow_flex_r	pro_sup_r	wrist_flex_r	wrist_dev_r	arm_flex_l	arm_add_l	arm_rot_l	elbow_flex_l	pro_sup_l	wrist_flex_l	wrist_dev_l
1.67	0.142601	1.33437	1.4582	0.573921	-0.170678	1.00426	0.789546	-0.00865411	0.0684357	0.642601	-0.227195	0	0	-0.0833412	0.00463017	-0.199372	0.10926	-0.338632	0	0	-0.0642888	-0.0764994	-0.044916	0.738141	-0.683618	0.688332	1.4497	1.5708	0	0	0.721865	-0.155046	0.732722	1.35336	1.5708	0	0
1.68	0.140711	1.33205	1.46139	0.574336	-0.166163	1.00319	0.791878	-0.0111303	0.0604257	0.632775	-0.225945	0	0	-0.0872805	0.00456993	-0.198078	0.106023	-0.338987	0	0	-0.0640762	-0.0755183	-0.045035	0.742908	-0.684527	0.688275	1.45117	1.5708	0	0	0.72625	-0.154571	0.731513	1.3533	1.5708	0	0
1.69	0.137328	1.32959	1.46574	0.574882	-0.161454	1.00203	0.794359	-0.0131662	0.0540312	0.626076	-0.224591	0	0	-0.0912304	0.0047489	-0.197342	0.103033	-0.339278	0	0	-0.0633722	-0.074975	-0.0447712	0.746783	-0.685431	0.687434	1.45353	1.5708	0	0	0.729934	-0.154084	0.729782	1.3539	1.5708	0	0
1.7	0.133119	1.32752	1.47133	0.575437	-0.156555	1.00086	0.796014	-0.0154867	0.0471955	0.621333	-0.222571	0	0	-0.0959454	0.00517809	-0.195779	0.0996139	-0.339699	0	0	-0.0629118	-0.0746189	-0.0447656	0.750193	-0.686686	0.686433	1.4567	1.5708	0	0	0.733066	-0.153569	0.727691	1.35506	1.5708	0	0
1.71	0.129285	1.32592	1.47702	0.576058	-0.151536	0.999691	0.797017	-0.0178174	0.0403509	0.619791	-0.220691	0	0	-0.101242	0.00535806	-0.193748	0.0964556	-0.340033	0	0	-0.063003	-0.0742742	-0.045167	0.753316	-0.687914	0.685365	1.46042	1.5708	0	0	0.735739	-0.153599	0.725287	1.35715	1.5708	0	0
1.72	0.12709	1.32443	1.48142	0.576744	-0.146384	0.998493	0.797696	-0.019977	0.0329225	0.621261	-0.219605	0	0	-0.107001	0.00493155	-0.190776	0.0927393	-0.340543	0	0	-0.0632991	-0.0735457	-0.0460775	0.756331	-0.688942	0.68463	1.46454	1.5708	0	0	0.737309	-0.15407	0.721823	1.36042	1.5708	0	0
1.73	0.125568	1.32275	1.48518	0.577495	-0.141038	0.997238	0.79779	-0.0216374	0.0269489	0.624642	-0.220259	0	0	-0.112799	0.00414597	-0.18791	0.0889699	-0.34116	0	0	-0.0632314	-0.0726294	-0.047289	0.758986	-0.689713	0.684167	1.46907	1.5708	0	0	0.737575	-0.154953	0.717506	1.36478	1.5708	0	0
1.74	0.125004	1.32118	1.48841	0.578337	-0.13553	0.995955	0.796588	-0.0227636	0.0226354	0.629291	-0.222572	0	0	-0.118556	0.00281903	-0.185155	0.0856125	-0.342033	0	0	-0.063342	-0.0715953	-0.0493215	0.761564	-0.690014	0.683779	1.47404	1.5708	0	0	0.736882	-0.156531	0.712351	1.37056	1.5708	0	0
1.75	0.124974	1.31975	1.49159	0.579219	-0.129842	0.994674	0.793894	-0.0236125	0.0191787	0.63485	-0.225366	0	0	-0.124502	0.00115875	-0.182473	0.0822695	-0.343122	0	0	-0.0635966	-0.0704226	-0.0523563	0.764179	-0.68975	0.683416	1.47922	1.5708	0	0	0.735282	-0.158756	0.706183	1.37763	1.5708	0	0
1.76	0.125253	1.31847	1.49492	0.580143	-0.123985	0.993398	0.790114	-0.0243964	0.0159169	0.640609	-0.227807	0	0	-0.130892	-0.000737087	-0.179568	0.0789128	-0.344374	0	0	-0.0639631	-0.069179	-0.0562833	0.766874	-0.688987	0.683307	1.48452	1.5708	0	0	0.732925	-0.161337	0.699246	1.38554	1.5708	0	0
1.77	0.125442	1.31699	1.49835	0.581112	-0.117985	0.992144	0.787375	-0.0254485	0.0123497	0.646571	-0.231521	0	0	-0.1373	-0.00268747	-0.176531	0.0754722	-0.345992	0	0	-0.0640863	-0.0678118	-0.0605634	0.769775	-0.688107	0.683948	1.48986	1.5708	0	0	0.72968	-0.164219	0.691742	1.3941	1.5708	0	0
1.78	0.127318	1.31528	1.49968	0.582185	-0.112015	0.991031	0.787446	-0.0266218	0.00863229	0.652467	-0.240147	0	0	-0.142952	-0.00520714	-0.173043	0.072861	-0.348123	0	0	-0.0646939	-0.0656737	-0.0650999	0.774044	-0.686927	0.686143	1.49519	1.5708	0	0	0.725495	-0.167702	0.682906	1.40388	1.5708	0	0
1.79	0.131118	1.31312	1.49767	0.583468	-0.106057	0.99015	0.789373	-0.0262745	0.00646199	0.656641	-0.251242	0	0	-0.147495	-0.00842984	-0.170799	0.0718327	-0.350253	0	0	-0.0650532	-0.062777	-0.0679975	0.778366	-0.685722	0.688637	1.50033	1.5708	0	0	0.721335	-0.171419	0.674529	1.41328	1.5708	0	0
1.8	0.136441	1.31109	1.4926	0.584955	-0.100077	0.989571	0.791381	-0.0236631	0.00561405	0.660975	-0.262978	0	0	-0.151922	-0.0119804	-0.169374	0.0714074	-0.352824	0	0	-0.0659342	-0.0593578	-0.0690893	0.782437	-0.684553	0.690602	1.50575	1.5708	0	0	0.717462	-0.174905	0.666427	1.42232	1.5708	0	0
1.81	0.14123	1.30907	1.48637	0.586564	-0.0940007	0.98922	0.793246	-0.0194364	0.00693417	0.667659	-0.273938	0	0	-0.156177	-0.0151372	-0.16935	0.071608	-0.356213	0	0	-0.0668135	-0.0560249	-0.0684033	0.785938	-0.683368	0.691986	1.51122	1.5708	0	0	0.713526	-0.177769	0.658398	1.43093	1.5708	0	0
1.82	0.144775	1.30669	1.48009	0.588249	-0.0878256	0.989006	0.795683	-0.0143819	0.0111386	0.677198	-0.281911	0	0	-0.159571	-0.0178933	-0.17046	0.0729949	-0.360138	0	0	-0.066881	-0.0529797	-0.06638	0.788768	-0.681974	0.693199	1.51618	1.5708	0	0	0.709369	-0.179757	0.650479	1.43856	1.5708	0	0
1.83	0.147349	1.30402	1.47428	0.59004	-0.0815548	0.988897	0.798611	-0.00889771	0.0179742	0.688976	-0.28547	0	0	-0.16179	-0.0206958	-0.172304	0.0761944	-0.365012	0	0	-0.0666914	-0.0504233	-0.0650612	0.792056	-0.679123	0.695525	1.52008	1.5708	0	0	0.703275	-0.183071	0.640978	1.44772	1.5708	0	0
1.84	0.150475	1.30185	1.46839	0.591889	-0.075173	0.988963	0.800386	-0.00345054	0.0256145	0.700832	-0.285408	0	0	-0.163648	-0.0240014	-0.173558	0.0811324	-0.370078	0	0	-0.0672462	-0.0480032	-0.0653872	0.796235	-0.674876	0.699402	1.52294	1.5708	0	0	0.695388	-0.18838	0.630227	1.45853	1.5708	0	0
1.85	0.154335	1.30038	1.46279	0.593714	-0.0686511	0.989255	0.800072	0.00139322	0.0323578	0.711277	-0.284239	0	0	-0.165398	-0.0278188	-0.173734	0.0874912	-0.376232	0	0	-0.0686923	-0.0453051	-0.0679899	0.8018	-0.669112	0.705215	1.52461	1.5708	0	0	0.685885	-0.193958	0.61706	1.47021	1.5708	0	0
1.86	0.159907	1.29944	1.45668	0.595512	-0.0620064	0.989769	0.797556	0.00540463	0.035413	0.718965	-0.282196	0	0	-0.166889	-0.0324489	-0.172534	0.0952127	-0.38215	0	0	-0.0701963	-0.04205	-0.0710041	0.8065	-0.663267	0.710606	1.52566	1.5708	0	0	0.67712	-0.198812	0.605007	1.48001	1.5708	0	0
1.87	0.166912	1.29869	1.44978	0.597352	-0.0552367	0.990444	0.793219	0.00895816	0.0343468	0.723146	-0.278789	0	0	-0.16759	-0.0379194	-0.17122	0.104848	-0.388181	0	0	-0.0715243	-0.0383588	-0.0742562	0.810698	-0.657234	0.715945	1.52628	1.5708	0	0	0.668377	-0.203405	0.59318	1.48896	1.5708	0	0
1.88	0.174636	1.29816	1.44238	0.599189	-0.0483641	0.991233	0.787581	0.0120767	0.0288104	0.724933	-0.274519	0	0	-0.167455	-0.0437913	-0.170258	0.11681	-0.394248	0	0	-0.0726259	-0.0343178	-0.0771671	0.814621	-0.651557	0.721458	1.52662	1.5708	0	0	0.660073	-0.207844	0.582203	1.49689	1.5708	0	0
1.89	0.180458	1.29775	1.43668	0.601023	-0.0414065	0.992085	0.781332	0.0143671	0.020419	0.725173	-0.269857	0	0	-0.166523	-0.0490523	-0.169774	0.130496	-0.40037	0	0	-0.0731456	-0.0306902	-0.0790974	0.817845	-0.646397	0.726839	1.5267	1.5708	0	0	0.65239	-0.211921	0.572592	1.50327	1.5708	0	0
1.9	0.18309	1.29763	1.43341	0.602913	-0.0343876	0.993056	0.774478	0.0162082	0.011715	0.724649	-0.264905	0	0	-0.164745	-0.0532721	-0.170678	0.146241	-0.406932	0	0	-0.0734148	-0.0280349	-0.079607	0.820187	-0.641594	0.731724	1.52654	1.5708	0	0	0.645474	-0.215737	0.564413	1.50818	1.5708	0	0
1.91	0.182814	1.29777	1.43237	0.604818	-0.0273322	0.994139	0.767137	0.0176853	0.00385586	0.724524	-0.259711	0	0	-0.161887	-0.0564845	-0.17281	0.164329	-0.413872	0	0	-0.0734521	-0.0263123	-0.0786555	0.821551	-0.637415	0.736014	1.52636	1.5708	0	0	0.639201	-0.218877	0.557419	1.51147	1.5708	0	0
1.92	0.180827	1.29824	1.43211	0.60674	-0.0202502	0.995328	0.759271	0.019228	-0.00232273	0.724437	-0.25455	0	0	-0.158171	-0.0588959	-0.17547	0.184612	-0.420994	0	0	-0.0734146	-0.0251431	-0.0761186	0.822342	-0.633866	0.740005	1.52599	1.5708	0	0	0.633414	-0.221455	0.55153	1.51344	1.5708	0	0
1.93	0.178481	1.29894	1.43157	0.608704	-0.013181	0.996648	0.750818	0.0211357	-0.00736175	0.724139	-0.249847	0	0	-0.153422	-0.061032	-0.178199	0.206932	-0.428244	0	0	-0.0733657	-0.0240888	-0.0723248	0.822721	-0.630847	0.743756	1.52541	1.5708	0	0	0.628208	-0.22379	0.546778	1.51415	1.5708	0	0
1.94	0.176093	1.29968	1.43044	0.610722	-0.00611337	0.998049	0.741863	0.0233857	-0.0119849	0.722691	-0.245668	0	0	-0.147381	-0.063131	-0.181338	0.231383	-0.435918	0	0	-0.0731379	-0.0230602	-0.0675617	0.822858	-0.628169	0.747601	1.52462	1.5708	0	0	0.623149	-0.225887	0.542346	1.51405	1.5708	0	0
1.95	0.173748	1.30066	1.4288	0.612771	0.000933834	0.999506	0.732255	0.0258956	-0.0169073	0.719905	-0.241547	0	0	-0.14019	-0.0652067	-0.184517	0.258133	-0.443953	0	0	-0.0730031	-0.0220337	-0.0621484	0.823237	-0.625655	0.752149	1.52321	1.5708	0	0	0.6181	-0.227464	0.537617	1.51333	1.5708	0	0
1.96	0.171501	1.30172	1.42695	0.61482	0.00794444	1.00095	0.722421	0.0284759	-0.0218919	0.716209	-0.237677	0	0	-0.131646	-0.0672352	-0.186936	0.287116	-0.452347	0	0	-0.072769	-0.020999	-0.0564607	0.823899	-0.623303	0.757449	1.52138	1.5708	0	0	0.61318	-0.228679	0.533034	1.5121	1.5708	0	0
